<?xml version="1.0" encoding="UTF-8"?>
<svg id="Layer_1" data-name="Layer 1" xmlns="http://www.w3.org/2000/svg" viewBox="0 0 192 192">
  <defs>
    <style>
      .cls-1 {
        fill: #00bff2;
      }

      .cls-2 {
        fill: #00aceb;
      }

      .cls-3 {
        fill: #fff;
      }

      .cls-4 {
        fill: #ffa726;
      }

      .cls-5 {
        fill: #009cdd;
      }
    </style>
  </defs>
  <circle class="cls-3" cx="96" cy="96" r="96"/>
  <g>
    <path class="cls-2" d="m71.2,64.84l-4.61,17.17c-.83-.16-1.67-.24-2.56-.24-1.27,0-2.5.17-3.68.48-2.06.55-3.95,1.56-5.53,2.91l-12.56-12.56c1.63-1.53,3.42-2.87,5.34-4.03l.96-.56c2.25-1.24,4.66-2.22,7.19-2.9,2.64-.7,5.41-1.08,8.27-1.08,2.47,0,4.86.28,7.17.8Z"/>
    <path class="cls-1" d="m159.12,88.84c.54,2.31.81,4.69.81,7.16,0,2.87-.38,5.63-1.08,8.27-.68,2.53-1.66,4.94-2.9,7.18l-.57,1c-1.16,1.92-2.5,3.7-4.01,5.33l-12.56-12.56c1.34-1.58,2.35-3.46,2.9-5.54.32-1.17.48-2.41.48-3.68,0-.85-.07-1.67-.22-2.48l17.15-4.68Z"/>
    <path class="cls-5" d="m123.21,109.41l-4.62,17.17c-2.13-.67-4.17-1.54-6.09-2.6l-.94-.54c-2.26-1.35-4.34-2.98-6.19-4.83,0-.01-.01-.01-.01-.01l-.93-.97c-.72-.78-1.4-1.61-2.04-2.45l12.39-12.37,2.74,2.86c.13.14.26.28.4.41,1.47,1.48,3.28,2.64,5.3,3.35Z"/>
    <path class="cls-5" d="m89.63,76.84l-12.39,12.36h-.01s-2.73-2.84-2.73-2.84c-.14-.14-.26-.28-.4-.41-1.48-1.48-3.29-2.64-5.3-3.35l4.61-17.17c2.13.67,4.19,1.54,6.09,2.59l.94.55c2.26,1.35,4.35,2.98,6.19,4.83.01,0,.01.01.01.01l.93.96c.72.79,1.41,1.62,2.05,2.47Z"/>
    <path class="cls-2" d="m137.18,106.83l12.56,12.57c-1.63,1.53-3.42,2.87-5.34,4.03l-.96.56c-2.25,1.24-4.66,2.22-7.19,2.9-2.64.7-5.41,1.08-8.27,1.08-2.47,0-4.86-.28-7.17-.8l4.62-17.17c.83.16,1.67.24,2.55.24,1.27,0,2.51-.17,3.68-.48,2.06-.55,3.95-1.56,5.53-2.92Z"/>
    <path class="cls-4" d="m71.81,107.92l12.51,12.79c-1.2,1-2.49,1.9-3.83,2.71l-1.01.57c-2.24,1.25-4.64,2.22-7.17,2.9-2.64.7-5.41,1.08-8.28,1.08s-5.63-.38-8.27-1.08c-2.52-.68-4.92-1.65-7.16-2.89l-1.03-.6c-2.24-1.34-4.3-2.96-6.14-4.79-1.85-1.85-3.46-3.91-4.82-6.16l-.56-.99c-1.07-1.9-1.93-3.95-2.58-6.08l17.13-4.69c.7,2.04,1.87,3.86,3.36,5.37,1.74,1.74,3.93,3.04,6.38,3.68,1.18.32,2.41.48,3.68.48s2.51-.16,3.69-.48c1.47-.39,2.84-1.01,4.08-1.82Z"/>
    <path class="cls-1" d="m40.64,74.22l12.56,12.56c-1.34,1.58-2.35,3.46-2.9,5.54-.32,1.17-.48,2.41-.48,3.68,0,.85.07,1.67.22,2.48l-17.15,4.68c-.54-2.31-.81-4.7-.81-7.16,0-2.87.38-5.63,1.09-8.28.68-2.52,1.65-4.93,2.89-7.17l.57-1c1.16-1.92,2.5-3.7,4.01-5.33Z"/>
    <path class="cls-4" d="m158.53,86.63l-17.13,4.68c-.71-2.05-1.87-3.88-3.37-5.37-1.74-1.74-3.93-3.04-6.38-3.69-1.18-.31-2.41-.48-3.68-.48s-2.51.17-3.68.48c-1.47.4-2.84,1.02-4.09,1.83l-12.51-12.79c1.2-1,2.49-1.9,3.83-2.71l1.01-.58c2.24-1.24,4.64-2.21,7.17-2.89,2.64-.7,5.41-1.08,8.28-1.08s5.63.38,8.27,1.08c2.52.68,4.93,1.65,7.17,2.89l1.02.6c2.25,1.34,4.3,2.96,6.14,4.79s3.46,3.91,4.82,6.16l.56.97c1.07,1.93,1.94,3.96,2.59,6.1Z"/>
  </g>
</svg>